<?xml version="1.0" encoding="UTF-8"?>
<svg width="1200pt" height="1200pt" version="1.1" viewBox="0 0 1200 1200" xmlns="http://www.w3.org/2000/svg">
 <g>
  <path d="m600 399.28c10.285 0 18.625-8.3281 18.625-18.625v-125.14c0-10.285-8.3281-18.625-18.625-18.625s-18.625 8.3281-18.625 18.625v125.15c0 10.297 8.3398 18.613 18.625 18.613z"/>
  <path d="m306.66 509.88c3.6367 3.6367 8.3867 5.4492 13.164 5.4492 4.7773 0 9.5273-1.8125 13.164-5.4492 7.2734-7.2734 7.2734-19.066 0-26.328l-88.477-88.488c-7.2734-7.2734-19.055-7.2734-26.328 0-7.2734 7.2734-7.2734 19.055 0 26.328z"/>
  <path d="m1121.4 758.27h-232.58c-9.6602-151.02-135.31-271.08-288.79-271.08-153.43 0-279.1 120.06-288.76 271.09h-232.62c-10.297-0.011719-18.625 8.3281-18.625 18.609 0 10.285 8.3281 18.625 18.625 18.625h428.27c10.285 0 18.625-8.3281 18.625-18.625s-8.3281-18.625-18.625-18.625l-158.41 0.003906c9.6016-130.52 118.6-233.84 251.52-233.84 132.93 0 241.96 103.32 251.57 233.84h-158.46c-10.285 0-18.625 8.3281-18.625 18.625s8.3281 18.625 18.625 18.625h428.27c10.285 0 18.625-8.3281 18.625-18.625-0.003906-10.297-8.332-18.625-18.629-18.625z"/>
  <path d="m880.19 515.33c4.7656 0 9.5273-1.8125 13.164-5.4492l88.488-88.488c7.2734-7.2734 7.2734-19.055 0-26.328-7.2734-7.2734-19.055-7.2734-26.328 0l-88.477 88.488c-7.2734 7.2617-7.2734 19.055 0 26.328 3.625 3.6367 8.375 5.4492 13.152 5.4492z"/>
  <path d="m665.82 852.32-47.207 47.207v-215.75c0-10.285-8.3281-18.625-18.625-18.625s-18.625 8.3281-18.625 18.625v215.75l-47.207-47.207c-7.2734-7.2734-19.055-7.2734-26.328 0-7.2734 7.2617-7.2734 19.055 0 26.328l78.949 78.949c1.7539 1.7539 3.8164 3.1328 6.0859 4.0781 2.2812 0.89844 4.6914 1.4141 7.1289 1.4141s4.8359-0.51562 7.1289-1.4141c2.2578-0.94922 4.332-2.3281 6.0859-4.0781l78.949-78.949c7.2734-7.2734 7.2734-19.066 0-26.328-7.2812-7.2734-19.051-7.2734-26.336 0z"/>
 </g>
</svg>
