<?xml version="1.0" encoding="UTF-8"?>
<svg width="1200pt" height="1200pt" version="1.1" viewBox="0 0 1200 1200" xmlns="http://www.w3.org/2000/svg">
 <g>
  <path d="m675 144.85c0-41.902-33.574-75.852-75-75.852-41.438 0-75 33.961-75 75.852v75.863c0 41.891 33.574 75.852 75 75.852s75-33.961 75-75.852z"/>
  <path d="m1006.1 372.43c29.27-29.629 29.27-77.664 0-107.28-29.293-29.629-76.777-29.629-106.08 0l-31.066 31.414c-29.281 29.629-29.281 77.664 0 107.28 29.281 29.617 76.777 29.617 106.07 0z"/>
  <path d="m193.93 372.43c-29.293-29.629-29.293-77.664 0-107.28 29.293-29.629 76.777-29.629 106.07 0l31.055 31.414c29.293 29.629 29.293 77.664 0 107.28-29.281 29.617-76.766 29.617-106.07 0z"/>
  <path d="m75 751.71c-41.426 0-75-33.961-75-75.852 0-41.902 33.574-75.863 75-75.863h75c41.438 0 75 33.961 75 75.852 0 41.891-33.574 75.852-75 75.852h-75z"/>
  <path d="m1050 751.71c-41.41 0-75-33.961-75-75.852 0-41.902 33.59-75.863 75-75.863h75c41.426 0 75 33.961 75 75.852 0 41.891-33.574 75.852-75 75.852h-75z"/>
  <path d="m600 950.41c193.98 0 372.17 67.645 513.34 180.59 12.191-15.059 23.773-30.637 34.668-46.738-146.1-130.43-337.85-209.7-548-209.7-210.17 0-401.91 79.273-547.98 209.69 10.859 16.117 22.465 31.68 34.656 46.754 141.16-112.95 319.34-180.59 513.32-180.59z"/>
  <path d="m600 827.57c82.211 0 161.54 12.277 236.5 34.859 39.758-51.465 63.504-116.2 63.504-186.57 0-167.58-134.3-303.43-300-303.43s-300 135.85-300 303.43c0 70.367 23.762 135.11 63.504 186.57 74.953-22.582 154.27-34.859 236.5-34.859z"/>
 </g>
</svg>
