<?xml version="1.0" encoding="UTF-8"?>
<svg width="1200pt" height="1200pt" version="1.1" viewBox="0 0 1200 1200" xmlns="http://www.w3.org/2000/svg">
 <g>
  <path d="m600 417.9c10.285 0 18.625-8.3281 18.625-18.625v-125.13c0-10.285-8.3281-18.625-18.625-18.625s-18.625 8.3281-18.625 18.625v125.15c0 10.281 8.3398 18.609 18.625 18.609z"/>
  <path d="m306.66 528.5c3.6367 3.6367 8.3867 5.4492 13.164 5.4492 4.7773 0 9.5273-1.8125 13.164-5.4492 7.2734-7.2734 7.2734-19.066 0-26.328l-88.477-88.488c-7.2734-7.2734-19.055-7.2734-26.328 0-7.2734 7.2734-7.2734 19.055 0 26.328z"/>
  <path d="m1121.4 776.89h-232.58c-9.6602-151.03-135.31-271.09-288.79-271.09-153.43 0-279.1 120.06-288.76 271.09l-232.62-0.003906c-10.297 0-18.625 8.3398-18.625 18.625s8.3281 18.625 18.625 18.625h428.27c10.285 0 18.625-8.3281 18.625-18.625s-8.3281-18.625-18.625-18.625h-158.41c9.6016-130.52 118.6-233.84 251.52-233.84 132.93 0 241.96 103.32 251.57 233.84h-158.46c-10.285 0-18.625 8.3281-18.625 18.625s8.3281 18.625 18.625 18.625h428.27c10.285 0 18.625-8.3281 18.625-18.625-0.003906-10.297-8.332-18.625-18.629-18.625z"/>
  <path d="m880.19 533.95c4.7656 0 9.5273-1.8125 13.164-5.4492l88.488-88.488c7.2734-7.2734 7.2734-19.055 0-26.328-7.2734-7.2734-19.055-7.2734-26.328 0l-88.477 88.488c-7.2734 7.2617-7.2734 19.055 0 26.328 3.625 3.6367 8.375 5.4492 13.152 5.4492z"/>
  <path d="m692.16 757.33c7.2734-7.2734 7.2734-19.066 0-26.328l-78.949-78.961c-1.7539-1.7539-3.8164-3.1328-6.0859-4.0781-4.5859-1.8477-9.6719-1.8477-14.258 0-2.2578 0.94922-4.332 2.3281-6.0859 4.0781l-78.949 78.961c-7.2734 7.2617-7.2734 19.055 0 26.328 7.2734 7.2617 19.055 7.2617 26.328 0l47.207-47.219v215.75c0 10.285 8.3281 18.625 18.625 18.625 10.297 0 18.625-8.3281 18.625-18.625l0.007812-215.73 47.207 47.219c3.6484 3.6367 8.3984 5.4492 13.176 5.4492 4.7383-0.011719 9.5156-1.8242 13.152-5.4609z"/>
 </g>
</svg>
