<?xml version="1.0" encoding="UTF-8"?>
<svg width="1200pt" height="1200pt" version="1.1" viewBox="0 0 1200 1200" xmlns="http://www.w3.org/2000/svg">
 <g>
  <path d="m1087.4 1062.5c-32.051 0.45312-63.332-9.8242-88.867-29.199-17.527-13.488-39.02-20.801-61.133-20.801-22.113 0-43.609 7.3125-61.133 20.801-25.75 18.969-56.891 29.199-88.867 29.199-31.98 0-63.121-10.23-88.867-29.199-17.527-13.488-39.02-20.801-61.133-20.801-22.113 0-43.609 7.3125-61.133 20.801-25.75 18.969-56.898 29.203-88.879 29.199-31.984-0.003906-63.129-10.242-88.875-29.219-17.258-13.875-38.852-21.234-60.992-20.781-22.188-0.45703-43.828 6.9062-61.133 20.801-25.535 19.375-56.816 29.652-88.867 29.199-32.051 0.45312-63.332-9.8242-88.867-29.199-17.305-13.895-38.945-21.258-61.133-20.801-8.9297 0-17.184-4.7656-21.652-12.5-4.4648-7.7344-4.4648-17.266 0-25 4.4688-7.7344 12.723-12.5 21.652-12.5 32.051-0.45312 63.332 9.8242 88.867 29.199 17.305 13.895 38.945 21.258 61.133 20.801 22.188 0.45703 43.828-6.9062 61.133-20.801 25.535-19.375 56.816-29.652 88.867-29.199 32.012-0.44922 63.25 9.8281 88.746 29.188 17.52 13.492 39.016 20.812 61.129 20.812 22.117 0.003906 43.609-7.3086 61.137-20.801 25.746-18.965 56.887-29.199 88.867-29.199 31.977 0 63.117 10.234 88.867 29.199 17.523 13.488 39.02 20.801 61.133 20.801 22.113 0 43.605-7.3125 61.133-20.801 25.746-18.965 56.887-29.199 88.867-29.199 31.977 0 63.117 10.234 88.867 29.199 17.305 13.895 38.945 21.258 61.133 20.801 17.508 0.6875 34.809-3.9688 49.609-13.344 5.6602-3.4922 12.484-4.5859 18.953-3.0352 6.4727 1.5469 12.059 5.6133 15.52 11.297 3.4648 5.6797 4.5195 12.508 2.9336 18.969-1.5859 6.4648-5.6797 12.027-11.383 15.457-22.609 14.219-48.934 21.41-75.633 20.656z"/>
  <path d="m1150 925c-33.004 0.64062-65.312-9.5117-92.023-28.906-18.973-13.711-41.785-21.094-65.195-21.094-23.406 0-46.223 7.3828-65.195 21.094-26.988 18.816-59.098 28.906-92 28.906-32.902 0-65.012-10.09-92-28.906-18.953-13.711-41.754-21.094-65.148-21.094-23.391 0-46.191 7.3828-65.145 21.094-26.703 19.395-59.008 29.547-92.004 28.906-32.988 0.64062-65.285-9.5117-91.973-28.914-18.695-14.203-41.66-21.641-65.133-21.086-23.465-0.55078-46.422 6.8828-65.105 21.086-26.688 19.398-58.977 29.551-91.961 28.914-32.992 0.64062-65.289-9.5117-91.98-28.914-18.695-14.203-41.664-21.641-65.137-21.086-8.9297 0-17.184-4.7656-21.652-12.5-4.4648-7.7344-4.4648-17.266 0-25 4.4688-7.7344 12.723-12.5 21.652-12.5 32.992-0.64062 65.289 9.5117 91.98 28.914 18.695 14.203 41.66 21.641 65.137 21.086 23.465 0.55078 46.422-6.8828 65.105-21.086 26.688-19.398 58.977-29.551 91.961-28.914 32.988-0.64062 65.285 9.5117 91.977 28.914 18.953 13.707 41.75 21.086 65.145 21.086 23.395 0 46.191-7.3828 65.145-21.094 26.984-18.816 59.094-28.906 91.992-28.906 32.898 0 65.004 10.094 91.988 28.914 18.961 13.707 41.766 21.086 65.164 21.086s46.203-7.3828 65.164-21.094c26.996-18.816 59.117-28.906 92.023-28.906 32.91 0 65.027 10.09 92.027 28.906 18.715 14.211 41.699 21.648 65.191 21.094 8.9297 0 17.184 4.7656 21.652 12.5 4.4648 7.7344 4.4648 17.266 0 25-4.4688 7.7344-12.723 12.5-21.652 12.5z"/>
  <path d="m600 137.5c-97.484-0.011719-191.82 34.508-266.28 97.434-74.457 62.926-124.22 150.19-140.46 246.32s2.0977 194.89 51.75 278.79c3.4922 5.8633 9.2266 10.047 15.875 11.578 6.6484 1.5312 13.637 0.27344 19.34-3.4727 16.469-12.391 36.672-18.789 57.273-18.141 22.141-0.45312 43.734 6.9062 60.992 20.781 25.746 18.977 56.891 29.215 88.875 29.219 31.98 0.003906 63.129-10.23 88.879-29.199 17.523-13.488 39.02-20.801 61.133-20.801 22.113 0 43.605 7.3125 61.133 20.801 25.746 18.969 56.887 29.199 88.867 29.199 31.977 0 63.117-10.23 88.867-29.199 17.305-13.895 38.945-21.258 61.133-20.801 2.4727 0 4.8398 0.10938 7.207 0.22656 4.8242 0.26172 9.6172-0.89453 13.789-3.3281 4.1719-2.4336 7.5391-6.0352 9.6836-10.363 42.609-84.23 55.059-180.52 35.27-272.82-19.789-92.297-70.617-175.02-144.01-234.39-73.395-59.363-164.92-91.77-259.32-91.824z"/>
  <path d="m1087.4 800c-32.047 0.45312-63.324-9.8242-88.855-29.199-15.434-12.344-34.344-19.543-54.078-20.586-2.2266-0.10547-4.5898-0.21484-7.0664-0.21484-22.188-0.45703-43.828 6.9062-61.133 20.801-25.75 18.969-56.891 29.199-88.867 29.199-31.98 0-63.121-10.23-88.867-29.199-17.527-13.488-39.02-20.801-61.133-20.801-22.113 0-43.609 7.3125-61.133 20.801-25.75 18.969-56.898 29.203-88.879 29.199-31.984-0.003906-63.129-10.242-88.875-29.219-17.258-13.875-38.852-21.234-60.992-20.781-20.602-0.64844-40.805 5.75-57.273 18.141l-3.5664 2.3867c-25.574 19.543-56.977 29.922-89.16 29.473-32.051 0.45312-63.332-9.8242-88.867-29.199-17.305-13.895-38.945-21.258-61.133-20.801-8.9297 0-17.184-4.7656-21.652-12.5-4.4648-7.7344-4.4648-17.266 0-25 4.4688-7.7344 12.723-12.5 21.652-12.5 32.051-0.45312 63.332 9.8242 88.867 29.199 17.305 13.895 38.945 21.258 61.133 20.801 22.27 0.44922 43.984-6.9883 61.305-20.996l3.8516-2.5742c24.656-17.793 54.441-27.07 84.844-26.43 32.012-0.44922 63.25 9.8281 88.746 29.188 17.52 13.492 39.016 20.812 61.129 20.812 22.117 0.003906 43.609-7.3086 61.137-20.801 25.746-18.965 56.887-29.199 88.867-29.199 31.977 0 63.117 10.234 88.867 29.199 17.523 13.488 39.02 20.801 61.133 20.801 22.113 0 43.605-7.3125 61.133-20.801 25.535-19.371 56.816-29.652 88.867-29.199 3.2734 0 6.4023 0.13281 9.5391 0.27344 28.746 1.4883 56.387 11.566 79.344 28.934 17.301 13.887 38.938 21.25 61.117 20.793 17.508 0.6875 34.809-3.9688 49.609-13.344 5.6602-3.4922 12.484-4.5859 18.953-3.0352 6.4727 1.5469 12.059 5.6133 15.52 11.297 3.4648 5.6797 4.5195 12.508 2.9336 18.969-1.5859 6.4648-5.6797 12.027-11.383 15.457-22.609 14.219-48.934 21.41-75.633 20.656z"/>
 </g>
</svg>
